<svg xmlns="http://www.w3.org/2000/svg" width="92.457" height="119.326" viewBox="0 0 92.457 119.326"><defs><style>.a,.e{fill:#ff7442;}.a{opacity:0.3;}.b{fill:#616161;}.c,.f,.g{fill:#fff;}.d{fill:#bf360c;}.f{font-size:10px;}.f,.g{font-family:Helvetica-Bold, Helvetica;font-weight:700;}.g{font-size:19px;}.h{font-size:11.083px;font-family:Helvetica;font-weight:400;baseline-shift:6.332699871831665;}</style></defs><path class="a" d="M14.6,0h63.26a14.6,14.6,0,0,1,14.6,14.6V84.346a14.6,14.6,0,0,1-14.6,14.6H14.6A14.6,14.6,0,0,1,0,84.346V14.6A14.6,14.6,0,0,1,14.6,0Z" transform="translate(0 20.381)"/><g transform="translate(18.654 0)"><path class="b" d="M320.4,337.832a56.561,56.561,0,0,1,13.21-27.252,8.817,8.817,0,0,0,1.277-2.648,44.627,44.627,0,0,1,24.7,17.045c-.186.2-.849.543-1.035.747-.274.3.176.121-.037.468a75.558,75.558,0,0,1,7.49,11.77Z" transform="translate(-320.404 -270.102)"/><g transform="translate(10.803 0)"><path class="b" d="M335.865,305.948c1.722-3.355,3.255-6.7,4.978-10.059a22.829,22.829,0,0,1-2.392-16.949,16.513,16.513,0,0,1,32.337,2.654,12.378,12.378,0,0,0,1.226,3.37c-.24.527-.822,1.018-1.061,1.545.166.762.258,1.364.424,2.126.563,2.582,2.075,4.893,3.113,7.323.278.65-.413,1.292-1,1.679a2.226,2.226,0,0,1-2.03.2c-.514.336-.773,2.048-.586,2.681a.963.963,0,0,1-.439,1.11c-.595.352-.631.371-.869.38a.946.946,0,0,1,.716.768,1.473,1.473,0,0,1-.58,1.447,1.252,1.252,0,0,1-.785.194c-.644-.057-1.227-.506-1.529.373-.31.9.061,1.9-.131,2.819a3.832,3.832,0,0,1-1.246,2.008,4.583,4.583,0,0,1-3.452.954,13.119,13.119,0,0,1-4.963-2.551,23.253,23.253,0,0,0-3.352,7.661C352.986,314.73,340.473,308.182,335.865,305.948Z" transform="translate(-335.19 -259.519)"/><path class="b" d="M342.172,294.554a33.151,33.151,0,0,1-7.187-18.358c-.16-2.47.284-5.43,2.716-6.546-1.255-3.348.65-7.127,3.553-9.487a16.428,16.428,0,0,1,10.85-3.178,34.28,34.28,0,0,1,11.237,2.684c2.026.8,4.249,1.694,6.367,1.52a5.914,5.914,0,0,1,3.943.941,6.9,6.9,0,0,1,3.095,4.926,7.254,7.254,0,0,1-4.312,6.871C361.651,278.89,351.862,287.992,342.172,294.554Z" transform="translate(-334.956 -256.973)"/><g transform="translate(8.522 7.688)"><path class="c" d="M351.11,295.04V268.581a1.251,1.251,0,1,0-2.5,0V295.04a3.424,3.424,0,1,0,2.5,0Z" transform="translate(-346.435 -267.329)"/><path class="d" d="M351.088,300.013V273.085a.8.8,0,0,0-1.6,0v26.927a2.191,2.191,0,1,0,1.6,0Z" transform="translate(-346.863 -271.182)"/></g></g><path class="b" d="M370.754,331.888l8.193.413c1.843.093,2.775,2.76,2.773,4.606,0,2.421,1.584,4.8,2.338,7.1l-10.72.124Z" transform="translate(-333.376 -276.274)"/></g><rect class="e" width="92" height="54" rx="14" transform="translate(0 65.326)"/><text class="f" transform="translate(20 87.326)"><tspan x="0" y="0">High Fever</tspan></text><text class="g" transform="translate(34 109.326)"><tspan x="0" y="0">40</tspan><tspan class="h" y="0">c</tspan></text></svg>