<svg xmlns="http://www.w3.org/2000/svg" width="41.527" height="29.199" viewBox="0 0 41.527 29.199"><defs><style>.a{fill:#09d189;}</style></defs><g transform="translate(0 12.977)"><path class="a" d="M39.9,236H1.622a1.622,1.622,0,0,0,0,3.244H39.9a1.622,1.622,0,0,0,0-3.244Z" transform="translate(0 -236)"/></g><g transform="translate(0 0)"><path class="a" d="M30.172,76H1.622a1.622,1.622,0,0,0,0,3.244h28.55a1.622,1.622,0,0,0,0-3.244Z" transform="translate(0 -76)"/></g><g transform="translate(0 25.954)"><path class="a" d="M18.006,396H1.622a1.622,1.622,0,0,0,0,3.244H18.006a1.622,1.622,0,0,0,0-3.244Z" transform="translate(0 -396)"/></g></svg>