<svg xmlns="http://www.w3.org/2000/svg" width="41.527" height="41.527" viewBox="0 0 41.527 41.527"><defs><style>.a{fill:#09d189;}</style></defs><path class="a" d="M20.764,0A20.766,20.766,0,0,0,2.754,31.1L.078,39.407A1.622,1.622,0,0,0,2.12,41.449l8.308-2.675A20.764,20.764,0,1,0,20.764,0Zm0,38.283a17.468,17.468,0,0,1-9.273-2.654,1.623,1.623,0,0,0-1.357-.169l-6,1.931,1.931-6A1.623,1.623,0,0,0,5.9,30.037a17.52,17.52,0,1,1,14.865,8.246Zm2.028-17.519a2.028,2.028,0,1,1-2.028-2.028A2.028,2.028,0,0,1,22.791,20.764Zm8.111,0a2.028,2.028,0,1,1-2.028-2.028A2.028,2.028,0,0,1,30.9,20.764Zm-16.221,0a2.028,2.028,0,1,1-2.028-2.028A2.028,2.028,0,0,1,14.68,20.764Zm0,0"/></svg>