<svg xmlns="http://www.w3.org/2000/svg" width="35.687" height="41.527" viewBox="0 0 35.687 41.527"><defs><style>.a{fill:#09d189;}</style></defs><path class="a" d="M34.065,32.119H32.443V20.764A14.624,14.624,0,0,0,22.061,6.786a4.7,4.7,0,1,0-8.434,0A14.624,14.624,0,0,0,3.244,20.764V32.119H1.622a1.622,1.622,0,0,0,0,3.244H9.9a7.8,7.8,0,0,0,7.616,6.164h.649a7.8,7.8,0,0,0,7.616-6.164h8.281a1.622,1.622,0,0,0,0-3.244ZM16.384,4.7a1.46,1.46,0,1,1,1.46,1.46A1.462,1.462,0,0,1,16.384,4.7Zm1.784,33.578h-.649a4.549,4.549,0,0,1-4.243-2.92h9.134A4.549,4.549,0,0,1,18.168,38.283ZM6.489,32.119V20.764a11.355,11.355,0,0,1,22.71,0V32.119Zm0,0"/></svg>