<svg xmlns="http://www.w3.org/2000/svg" xmlns:xlink="http://www.w3.org/1999/xlink" width="193.961" height="109.264" viewBox="0 0 193.961 109.264"><defs><style>.a{fill:url(#a);}.b{fill:#fff;}</style><linearGradient id="a" x1="1.044" y1="0.45" x2="0" y2="0.452" gradientUnits="objectBoundingBox"><stop offset="0" stop-color="#9f2fff"/><stop offset="1" stop-color="#09d189"/></linearGradient></defs><g transform="translate(-7.47 -7.2)"><path class="a" d="M14.113,41.775V81.247a2.159,2.159,0,0,0,1.039,1.83l34.179,19.736a7.981,7.981,0,0,0-.346,2.424,8.765,8.765,0,0,0,9.6,8.706,8.871,8.871,0,0,0,7.815-7.321,9.117,9.117,0,0,0-.247-3.858L81.63,93.81a2.06,2.06,0,0,0,.692-2.918h0a2.069,2.069,0,0,0-2.77-.692L64.071,99.152a8.728,8.728,0,0,0-12.663,0L18.268,80.01V41.775a8.8,8.8,0,0,0,6.678-8.508,10.288,10.288,0,0,0-.346-2.473l33.14-19.142,13.355,7.766a8.083,8.083,0,0,0-.346,2.473v.495A8.626,8.626,0,0,0,79.454,30.4H79.6a8.481,8.481,0,0,0,7.667-4.551,8.963,8.963,0,0,0,.89-5,8.814,8.814,0,0,0-7.37-7.617,8.62,8.62,0,0,0-7.617,2.622L58.778,7.5a1.966,1.966,0,0,0-2.077,0L22.522,27.233A8.806,8.806,0,0,0,14.9,24.611a8.763,8.763,0,0,0-.791,17.164ZM75,22.682a4.59,4.59,0,1,1,3.759,3.759A4.6,4.6,0,0,1,75,22.682ZM53.238,106.028a4.578,4.578,0,0,1,5.293-5.293,4.59,4.59,0,1,1-5.293,5.293ZM11.689,34.059a4.59,4.59,0,1,1,3.759,3.759A4.6,4.6,0,0,1,11.689,34.059Z"/><g transform="translate(31.765 34.059)"><path class="b" d="M72.619,106.709a25.957,25.957,0,0,1-10.041-1.632,14.675,14.675,0,0,1-5.589-4.452h0a1.874,1.874,0,0,1,.3-2.622l.148-.148a1.873,1.873,0,0,1,2.572.346l.1.148a13.284,13.284,0,0,0,1.632,1.682,8.706,8.706,0,0,0,2.176,1.385,12.81,12.81,0,0,0,3.561,1.039,30.46,30.46,0,0,0,5.095.4c3.809,0,6.727-.841,8.854-2.473a7.915,7.915,0,0,0,3.166-6.628,6.3,6.3,0,0,0-.544-2.572,5.44,5.44,0,0,0-1.434-1.88,10.635,10.635,0,0,0-2.572-1.533,23.082,23.082,0,0,0-3.364-1.237c-1.138-.3-2.572-.692-4.353-1.138a43.5,43.5,0,0,1-10.14-3.462,9.986,9.986,0,0,1-3.809-3.462,9.686,9.686,0,0,1-1.484-5.392,10.23,10.23,0,0,1,3.759-8.359C63.32,62.539,67.327,61.5,72.57,61.5a16.082,16.082,0,0,1,12.663,6.084h0a1.911,1.911,0,0,1-.346,2.72l-.049.049a1.9,1.9,0,0,1-2.671-.346l-.1-.148A10.982,10.982,0,0,0,77.912,66.5a12.338,12.338,0,0,0-5.293-1.187q-6.455,0-9.349,2.374a6.646,6.646,0,0,0-2.325,5.392,6.267,6.267,0,0,0,.544,2.671,5.63,5.63,0,0,0,1.434,1.929,12.942,12.942,0,0,0,2.622,1.583,20.391,20.391,0,0,0,3.413,1.237c1.138.3,2.572.692,4.353,1.138C78.159,82.819,81.523,83.907,83.4,85a12.146,12.146,0,0,1,3.759,3.413,9.28,9.28,0,0,1,1.533,5.342,11.783,11.783,0,0,1-1.088,5.095,10.237,10.237,0,0,1-3.166,4.105C81.572,105.473,77.665,106.709,72.619,106.709Z" transform="translate(-56.586 -61.5)"/><path class="b" d="M136.847,106.1V76.368a1.984,1.984,0,0,1,1.979-1.979h0a1.984,1.984,0,0,1,1.979,1.979V106.1a1.984,1.984,0,0,1-1.979,1.979h0A1.984,1.984,0,0,1,136.847,106.1Zm1.979-41.9h0a2.217,2.217,0,0,0-2.226,2.226v.544a2.217,2.217,0,0,0,2.226,2.226h0a2.217,2.217,0,0,0,2.226-2.226v-.544A2.217,2.217,0,0,0,138.826,64.2Z" transform="translate(-97.023 -62.864)"/><path class="b" d="M173.067,118.434a13.025,13.025,0,0,1-8.458-2.819,8.99,8.99,0,0,1-3.809-7.321,8.816,8.816,0,0,1,3.809-7.222,13.025,13.025,0,0,1,8.458-2.819h7.024a1.058,1.058,0,0,0,.89-.346,1.654,1.654,0,0,0,.4-1.286v-1.88a5.4,5.4,0,0,0-2.275-4.3,8.5,8.5,0,0,0-5.54-1.83,9.164,9.164,0,0,0-3.858.841,7.435,7.435,0,0,0-2.819,2.176l-.1.1a1.89,1.89,0,0,1-2.622.4l-.148-.1a1.911,1.911,0,0,1-.346-2.72h0a10.668,10.668,0,0,1,4.254-3.364,13.83,13.83,0,0,1,5.688-1.237,12.445,12.445,0,0,1,8.211,2.819,9.1,9.1,0,0,1,3.561,7.222v13.553a8.844,8.844,0,0,1-3.71,7.222A13.431,13.431,0,0,1,173.067,118.434Zm0-16.273a9.326,9.326,0,0,0-6.035,1.979,4.976,4.976,0,0,0,0,8.359,10.267,10.267,0,0,0,12.118,0,5.291,5.291,0,0,0,2.226-4.155v-6.232a5.791,5.791,0,0,1-1.237.049Z" transform="translate(-109.253 -73.225)"/><path class="b" d="M220.288,106.392V74.983A1.984,1.984,0,0,1,222.267,73h0a1.984,1.984,0,0,1,1.979,1.979v31.409a12.617,12.617,0,0,1-3.611,9.1,11.319,11.319,0,0,1-8.656,3.858h0A1.984,1.984,0,0,1,210,117.373h0a1.984,1.984,0,0,1,1.979-1.979h0a7.853,7.853,0,0,0,5.886-2.622A9.322,9.322,0,0,0,220.288,106.392ZM222.217,64.2h0a2.217,2.217,0,0,0-2.226,2.226v.544a2.217,2.217,0,0,0,2.226,2.226h0a2.217,2.217,0,0,0,2.226-2.226v-.544A2.217,2.217,0,0,0,222.217,64.2Z" transform="translate(-134.117 -62.864)"/><g transform="translate(105.462 21.615)"><path class="b" d="M271.828,126.817H283.9a1.045,1.045,0,0,1,1.039,1.039h0a1.045,1.045,0,0,1-1.039,1.039H271.333a1.541,1.541,0,0,1-1.533-1.533V106.339a1.045,1.045,0,0,1,1.039-1.039h0a1.045,1.045,0,0,1,1.039,1.039v20.478Z" transform="translate(-269.8 -105.251)"/><path class="b" d="M313.381,135.01a6.676,6.676,0,0,1-4.4-1.484A4.671,4.671,0,0,1,307,129.717a4.52,4.52,0,0,1,1.979-3.759,6.769,6.769,0,0,1,4.4-1.484h3.66a.6.6,0,0,0,.445-.148c.148-.1.2-.346.2-.643v-.989a2.752,2.752,0,0,0-1.187-2.226,4.357,4.357,0,0,0-2.869-.94,4.677,4.677,0,0,0-2.028.445,4.935,4.935,0,0,0-1.484,1.138l-.049.049a1.012,1.012,0,0,1-1.385.2l-.049-.049a.973.973,0,0,1-.2-1.385h0a5.739,5.739,0,0,1,2.226-1.781,6.53,6.53,0,0,1,2.968-.643,6.28,6.28,0,0,1,4.254,1.484,4.7,4.7,0,0,1,1.83,3.759v7.073a4.6,4.6,0,0,1-1.929,3.759A6.918,6.918,0,0,1,313.381,135.01Zm0-8.508a4.972,4.972,0,0,0-3.166,1.039,2.734,2.734,0,0,0-1.187,2.176,2.82,2.82,0,0,0,1.187,2.226,4.972,4.972,0,0,0,3.166,1.039,4.876,4.876,0,0,0,3.166-1.039,2.676,2.676,0,0,0,1.138-2.176V126.5a4.386,4.386,0,0,1-.643.049h-3.66Z" transform="translate(-288.6 -111.416)"/><path class="b" d="M345.255,128.794h-2.622a1.541,1.541,0,0,1-1.533-1.533V106.239a1.045,1.045,0,0,1,1.039-1.039h0a1.045,1.045,0,0,1,1.039,1.039v4.7a.562.562,0,0,0,.148.4,1.09,1.09,0,0,0,.791.2h1.237a8.639,8.639,0,0,1,6.133,14.74A8.708,8.708,0,0,1,345.255,128.794Zm-2.127-2.028h2.127a6.421,6.421,0,0,0,4.7-1.929,6.311,6.311,0,0,0,1.929-4.65,6.4,6.4,0,0,0-.89-3.314,6.7,6.7,0,0,0-2.424-2.424,6.579,6.579,0,0,0-3.363-.89h-1.187a2.994,2.994,0,0,1-.94-.1v13.306Z" transform="translate(-305.833 -105.2)"/><path class="b" d="M380.973,135.01a9.165,9.165,0,0,1-3.759-.643,5.782,5.782,0,0,1-2.127-1.731h0a1.026,1.026,0,0,1,.2-1.434h0a.962.962,0,0,1,1.385.2v.049a4.38,4.38,0,0,0,1.484,1.187,6.687,6.687,0,0,0,2.77.4,4.967,4.967,0,0,0,3.017-.841,2.814,2.814,0,0,0,1.088-2.275,2.033,2.033,0,0,0-1.039-1.781,13.03,13.03,0,0,0-3.166-1.088,16.617,16.617,0,0,1-3.759-1.286,3.978,3.978,0,0,1-2.077-3.611,4.215,4.215,0,0,1,1.484-3.364,6.973,6.973,0,0,1,4.5-1.286,5.98,5.98,0,0,1,1.88.3,5.122,5.122,0,0,1,1.632.841,6.56,6.56,0,0,1,1.336,1.286h0a1.019,1.019,0,0,1-.148,1.434h0a1.067,1.067,0,0,1-1.434-.148l-.049-.049a3.807,3.807,0,0,0-3.215-1.583c-2.622,0-3.908.89-3.908,2.622a1.956,1.956,0,0,0,1.088,1.83,12.825,12.825,0,0,0,3.215,1.088,18.792,18.792,0,0,1,3.71,1.286,3.91,3.91,0,0,1,2.028,3.561,4.608,4.608,0,0,1-1.583,3.66A7.036,7.036,0,0,1,380.973,135.01Z" transform="translate(-322.903 -111.416)"/></g></g><g transform="translate(82.385 102.961)"><path class="b" d="M162.227,214.665a4.694,4.694,0,0,1-1.979-.4,7.3,7.3,0,0,1-1.286-.791.15.15,0,0,1,0-.2l.89-.94a.15.15,0,0,1,.2,0,3.8,3.8,0,0,0,.989.643,2.565,2.565,0,0,0,1.187.247,1.769,1.769,0,0,0,1.039-.247.846.846,0,0,0,.346-.643.709.709,0,0,0-.247-.544,1.782,1.782,0,0,0-.989-.3l-.791-.1a2.794,2.794,0,0,1-1.731-.692,2.049,2.049,0,0,1-.594-1.533,2.107,2.107,0,0,1,.742-1.731,3.455,3.455,0,0,1,2.176-.643,5.648,5.648,0,0,1,1.632.247,4.165,4.165,0,0,1,1.237.643.122.122,0,0,1,.049.2l-.791.94c-.049.049-.148.1-.2.049a7.441,7.441,0,0,0-.89-.445,2.662,2.662,0,0,0-1.088-.2,1.323,1.323,0,0,0-.841.2.683.683,0,0,0-.3.544.794.794,0,0,0,.247.544,2.323,2.323,0,0,0,.989.3l.791.1a2.947,2.947,0,0,1,1.781.692,2.049,2.049,0,0,1,.594,1.533,2.262,2.262,0,0,1-.791,1.83A3.578,3.578,0,0,1,162.227,214.665Z" transform="translate(-158.925 -203.832)"/><path class="b" d="M182.248,202.482a.131.131,0,0,1-.148-.148v-1.385a.131.131,0,0,1,.148-.148h1.434a.131.131,0,0,1,.148.148v1.385a.131.131,0,0,1-.148.148Zm0,9a.131.131,0,0,1-.148-.148v-7.222a.131.131,0,0,1,.148-.148h1.434a.131.131,0,0,1,.148.148v7.222a.131.131,0,0,1-.148.148Z" transform="translate(-170.637 -200.8)"/><path class="b" d="M200.8,214.415a.131.131,0,0,1-.148-.148v-.544h0a2.064,2.064,0,0,1-.791.643,3.386,3.386,0,0,1-1.336.247,3.189,3.189,0,0,1-.989-.148,2.063,2.063,0,0,1-.791-.445,2.406,2.406,0,0,1-.544-.692,2.294,2.294,0,0,1-.2-1.039,2.078,2.078,0,0,1,.791-1.83,3.714,3.714,0,0,1,2.226-.594h1.533a.106.106,0,0,0,.1-.1v-.346a1.275,1.275,0,0,0-.346-.989,1.908,1.908,0,0,0-1.335-.3,2.89,2.89,0,0,0-1.039.148,3.022,3.022,0,0,0-.692.346c-.1.049-.148.049-.2-.049l-.594-1.039c-.049-.1-.049-.148.049-.2a5.583,5.583,0,0,1,1.088-.544,4.747,4.747,0,0,1,1.583-.2,3.473,3.473,0,0,1,2.424.643,2.465,2.465,0,0,1,.692,2.028v4.946a.131.131,0,0,1-.148.148H200.8Zm-1.83-1.286a2.175,2.175,0,0,0,1.237-.3,1.119,1.119,0,0,0,.445-.989v-.594a.106.106,0,0,0-.1-.1h-1.237a2.579,2.579,0,0,0-1.237.247.9.9,0,0,0-.4.791C197.632,212.832,198.077,213.129,198.968,213.129Z" transform="translate(-177.661 -203.731)"/><path class="b" d="M216.948,214.3a.131.131,0,0,1-.148-.148v-1.237a.131.131,0,0,1,.148-.148h.346a.967.967,0,0,0,.692-.2.9.9,0,0,0,.2-.692v-7.766a.131.131,0,0,1,.148-.148h1.434a.131.131,0,0,1,.148.148v7.667a2.458,2.458,0,0,1-.643,1.929,2.763,2.763,0,0,1-1.88.594Zm1.385-11.822a.131.131,0,0,1-.148-.148v-1.385a.131.131,0,0,1,.148-.148h1.434a.131.131,0,0,1,.148.148v1.385a.131.131,0,0,1-.148.148Z" transform="translate(-188.173 -200.8)"/><path class="b" d="M236.077,211.583a2.032,2.032,0,0,1-1.583-.544,2.469,2.469,0,0,1-.495-1.632v-8.458a.131.131,0,0,1,.148-.148h1.434a.131.131,0,0,1,.148.148v8.359a.8.8,0,0,0,.148.544.656.656,0,0,0,.495.148h.346a.131.131,0,0,1,.148.148v1.237a.131.131,0,0,1-.148.148h-.643Z" transform="translate(-196.865 -200.8)"/><path class="b" d="M253.8,214.415a.131.131,0,0,1-.148-.148v-.544h0a2.064,2.064,0,0,1-.791.643,3.386,3.386,0,0,1-1.336.247,3.189,3.189,0,0,1-.989-.148,2.063,2.063,0,0,1-.791-.445,2.406,2.406,0,0,1-.544-.692,2.294,2.294,0,0,1-.2-1.039,2.078,2.078,0,0,1,.791-1.83,3.714,3.714,0,0,1,2.226-.594h1.533a.106.106,0,0,0,.1-.1v-.346a1.275,1.275,0,0,0-.346-.989,1.908,1.908,0,0,0-1.336-.3,2.89,2.89,0,0,0-1.039.148,3.022,3.022,0,0,0-.692.346c-.1.049-.148.049-.2-.049l-.594-1.039c-.049-.1-.049-.148.049-.2a5.583,5.583,0,0,1,1.088-.544,4.747,4.747,0,0,1,1.583-.2,3.473,3.473,0,0,1,2.424.643,2.465,2.465,0,0,1,.692,2.028v4.946a.131.131,0,0,1-.148.148H253.8Zm-1.83-1.286a2.175,2.175,0,0,0,1.237-.3,1.119,1.119,0,0,0,.445-.989v-.594a.106.106,0,0,0-.1-.1h-1.237a2.579,2.579,0,0,0-1.237.247.9.9,0,0,0-.4.791C250.632,212.832,251.077,213.129,251.968,213.129Z" transform="translate(-204.446 -203.731)"/><path class="b" d="M276.41,211.632a2.884,2.884,0,0,1-1.237-.247,1.6,1.6,0,0,1-.742-.643h0v.544a.131.131,0,0,1-.148.148h-1.434a.131.131,0,0,1-.148-.148V200.948a.131.131,0,0,1,.148-.148h1.434a.131.131,0,0,1,.148.148v3.66h0a2.329,2.329,0,0,1,.742-.643,3.055,3.055,0,0,1,1.237-.247,2.877,2.877,0,0,1,1.632.445,2.466,2.466,0,0,1,.989,1.385,5.754,5.754,0,0,1,.2.89,15.49,15.49,0,0,1,0,2.473,5.754,5.754,0,0,1-.2.89,2.529,2.529,0,0,1-2.622,1.83Zm-.445-1.533a1.307,1.307,0,0,0,1.385-.989,2.482,2.482,0,0,0,.1-.594c0-.2.049-.495.049-.841a4.014,4.014,0,0,0-.049-.841c-.049-.2-.049-.4-.1-.594a1.343,1.343,0,0,0-1.385-.989,1.4,1.4,0,0,0-1.434.989,2.484,2.484,0,0,0-.1.594,7.176,7.176,0,0,0,0,1.682c.049.2.049.4.1.594A1.4,1.4,0,0,0,275.965,210.1Z" transform="translate(-216.423 -200.8)"/><path class="b" d="M298.427,214.665a4.694,4.694,0,0,1-1.979-.4,7.3,7.3,0,0,1-1.286-.791.15.15,0,0,1,0-.2l.89-.94a.15.15,0,0,1,.2,0,3.8,3.8,0,0,0,.989.643,2.565,2.565,0,0,0,1.187.247,1.769,1.769,0,0,0,1.039-.247.846.846,0,0,0,.346-.643.709.709,0,0,0-.247-.544,1.782,1.782,0,0,0-.989-.3l-.791-.1a2.794,2.794,0,0,1-1.731-.692,2.049,2.049,0,0,1-.594-1.533,2.107,2.107,0,0,1,.742-1.731,3.455,3.455,0,0,1,2.176-.643,5.648,5.648,0,0,1,1.632.247,4.166,4.166,0,0,1,1.237.643.122.122,0,0,1,.049.2l-.791.94c-.049.049-.148.1-.2.049a7.44,7.44,0,0,0-.89-.445,2.662,2.662,0,0,0-1.088-.2,1.323,1.323,0,0,0-.841.2.683.683,0,0,0-.3.544.794.794,0,0,0,.247.544,2.323,2.323,0,0,0,.989.3l.791.1a2.947,2.947,0,0,1,1.781.692,2.049,2.049,0,0,1,.594,1.533,2.262,2.262,0,0,1-.791,1.83A3.671,3.671,0,0,1,298.427,214.665Z" transform="translate(-227.756 -203.832)"/><path class="b" d="M318.1,218.648a.131.131,0,0,1,.148-.148h1.583a.131.131,0,0,1,.148.148v1.583a.131.131,0,0,1-.148.148h-1.583a.131.131,0,0,1-.148-.148Z" transform="translate(-239.367 -209.745)"/><path class="b" d="M335.164,214.614a3.7,3.7,0,0,1-1.979-.544,2.756,2.756,0,0,1-1.138-1.533,7.266,7.266,0,0,1,0-3.759,2.6,2.6,0,0,1,1.138-1.533,3.579,3.579,0,0,1,1.979-.544,3.454,3.454,0,0,1,1.484.3,4.51,4.51,0,0,1,1.138.841c.049.1.049.148,0,.2l-.989.841c-.1.049-.148.049-.2-.049a5.24,5.24,0,0,0-.594-.495,1.884,1.884,0,0,0-.791-.148,1.708,1.708,0,0,0-.89.247,1.233,1.233,0,0,0-.544.742c-.049.2-.1.4-.148.643,0,.247-.049.495-.049.791a4,4,0,0,0,.049.791,1.369,1.369,0,0,0,.148.643,1.4,1.4,0,0,0,.544.742,1.708,1.708,0,0,0,.89.247,1.884,1.884,0,0,0,.791-.148,2.624,2.624,0,0,0,.594-.495c.049-.049.148-.1.2,0l.989.841a.15.15,0,0,1,0,.2,3.252,3.252,0,0,1-1.138.841A2.865,2.865,0,0,1,335.164,214.614Z" transform="translate(-246.29 -203.782)"/><path class="b" d="M356.564,214.614a3.579,3.579,0,0,1-1.979-.544,2.756,2.756,0,0,1-1.138-1.533,4.189,4.189,0,0,1-.2-.841,10.93,10.93,0,0,1,0-2.077,5.177,5.177,0,0,1,.2-.841,2.756,2.756,0,0,1,1.138-1.533,3.579,3.579,0,0,1,1.979-.544,3.7,3.7,0,0,1,1.979.544,2.756,2.756,0,0,1,1.138,1.533,4.191,4.191,0,0,1,.2.841,10.937,10.937,0,0,1,0,2.077,5.177,5.177,0,0,1-.2.841,2.756,2.756,0,0,1-1.138,1.533A3.216,3.216,0,0,1,356.564,214.614Zm0-1.533a1.708,1.708,0,0,0,.89-.247,1.462,1.462,0,0,0,.544-.742l.148-.594c0-.2.049-.445.049-.791a3.519,3.519,0,0,0-.049-.791,1.317,1.317,0,0,0-.148-.594,1.617,1.617,0,0,0-.544-.742,1.35,1.35,0,0,0-.89-.247,1.708,1.708,0,0,0-.89.247,1.461,1.461,0,0,0-.544.742l-.148.594c0,.2-.049.445-.049.791a3.517,3.517,0,0,0,.049.791,2.607,2.607,0,0,0,.148.594,1.617,1.617,0,0,0,.544.742A1.708,1.708,0,0,0,356.564,213.081Z" transform="translate(-257.105 -203.782)"/><path class="b" d="M386.348,214.516a.131.131,0,0,1-.148-.148v-4.353a1.787,1.787,0,0,0-.346-1.187,1.314,1.314,0,0,0-1.088-.445,1.455,1.455,0,0,0-1.088.445,1.8,1.8,0,0,0-.4,1.187v4.353a.131.131,0,0,1-.148.148H381.7a.131.131,0,0,1-.148-.148v-4.353a1.787,1.787,0,0,0-.346-1.187,1.314,1.314,0,0,0-1.088-.445,1.454,1.454,0,0,0-1.088.445,1.8,1.8,0,0,0-.4,1.187v4.353a.131.131,0,0,1-.148.148h-1.434a.131.131,0,0,1-.148-.148v-7.222a.131.131,0,0,1,.148-.148h1.434a.131.131,0,0,1,.148.148v.544h0a1.941,1.941,0,0,1,.742-.643,3.054,3.054,0,0,1,1.237-.247,2.989,2.989,0,0,1,1.187.247,2.558,2.558,0,0,1,.89.742h0a3.96,3.96,0,0,1,1.039-.742A3.837,3.837,0,0,1,386.3,207a2.149,2.149,0,0,1,.841.594,2.692,2.692,0,0,1,.544.89,3.9,3.9,0,0,1,.2,1.138v4.748a.131.131,0,0,1-.148.148Z" transform="translate(-269.082 -203.832)"/></g></g></svg>